/* XPM */
static char * question_xpm[] = {
"20 20 81 1",
" 	c None",
".	c #00E1FF",
"+	c #00E0FF",
"@	c #00E3FF",
"#	c #00E7FF",
"$	c #00E4FF",
"%	c #00B1FF",
"&	c #0078FF",
"*	c #0055FF",
"=	c #00E2FF",
"-	c #00BFFF",
";	c #0044FF",
">	c #0037FF",
",	c #003BFF",
"'	c #00A4FF",
")	c #0034FF",
"!	c #0036FF",
"~	c #0031FF",
"{	c #043EFF",
"]	c #003AFF",
"^	c #00B9FF",
"/	c #0035FF",
"(	c #043DFF",
"_	c #B4C5FF",
":	c #FFFFFF",
"<	c #EEF2FF",
"[	c #6B8DFF",
"}	c #0042FF",
"|	c #D0DAFF",
"1	c #FCFCFF",
"2	c #7595FF",
"3	c #557CFF",
"4	c #ABBEFF",
"5	c #5E83FF",
"6	c #00A2FF",
"7	c #0038FF",
"8	c #4570FF",
"9	c #406DFF",
"0	c #002DFF",
"a	c #E7ECFF",
"b	c #8FA9FF",
"c	c #0039FF",
"d	c #00E5FF",
"e	c #0067FF",
"f	c #184DFF",
"g	c #2A5BFF",
"h	c #033DFF",
"i	c #F5F7FF",
"j	c #98B0FF",
"k	c #00E9FF",
"l	c #0041FF",
"m	c #0C44FF",
"n	c #023CFF",
"o	c #C3D1FF",
"p	c #144AFF",
"q	c #00EAFF",
"r	c #0F47FF",
"s	c #EAEEFF",
"t	c #446FFF",
"u	c #00E6FF",
"v	c #005BFF",
"w	c #A2B7FF",
"x	c #F4F6FF",
"y	c #0090FF",
"z	c #B5C6FF",
"A	c #00D5FF",
"B	c #002FFF",
"C	c #0030FF",
"D	c #0097FF",
"E	c #CAD6FF",
"F	c #A3B9FF",
"G	c #0073FF",
"H	c #7192FF",
"I	c #587FFF",
"J	c #00E8FF",
"K	c #0091FF",
"L	c #0033FF",
"M	c #00CCFF",
"N	c #0082FF",
"O	c #004AFF",
"P	c #00EBFF",
"                    ",
"      .+@##@+.      ",
"     +$%&**&%$+     ",
"   .=-;>,,,,>;-=.   ",
"   @'),,!~{~],)'@   ",
"  +^/,,(_::<[/,/^+  ",
" .+},,/|1234:5,,}+. ",
" +67,,8:9],0abc,76+ ",
" de,,,f:g,,hijc,,ed ",
" kl,,,cm7,no:p,,,lk ",
" q],,,,,,rs:t],,,]q ",
" uv,,,,,7wxf],,,,vu ",
" .y],,,,7jz!,,,,]y. ",
" .A/,,,,,BC,,,,,/A. ",
"  =D>,,,)EF>,,,>D=  ",
"  .#G>,,7HIc,,>G#.  ",
"   +JKL],c],]LKJ+   ",
"    .=MNOBBONM=.    ",
"      .=JPPJ=.      ",
"                    "};
