/* XPM */
static char * warning_xpm[] = {
"20 20 31 1",
" 	c None",
".	c #000000",
"+	c #5F5F00",
"@	c #EAEA00",
"#	c #6D6D00",
"$	c #F8F800",
"%	c #FFFF00",
"&	c #0A0A00",
"*	c #808000",
"=	c #111100",
"-	c #121200",
";	c #242400",
">	c #282800",
",	c #888800",
"'	c #353500",
")	c #3A3A00",
"!	c #8D8D00",
"~	c #070700",
"{	c #434300",
"]	c #4B4B00",
"^	c #9B9B00",
"/	c #3F3F00",
"(	c #141400",
"_	c #FEFE00",
":	c #F1F100",
"<	c #A8A800",
"[	c #4C4C00",
"}	c #222200",
"|	c #EEEE00",
"1	c #696900",
"2	c #A3A300",
"                    ",
"                    ",
"         ..         ",
"        ....        ",
"        .++.        ",
"       ..@@..       ",
"       .#$$#.       ",
"      ..%&&%..      ",
"      .*%=-%*.      ",
"     ..%%;>%%..     ",
"     .,%%')%%!.     ",
"    .~%%%{]%%%~.    ",
"    .^%%%//%%%^.    ",
"   .(%%%_::_%%%(.   ",
"   .<%%%%[[%%%%<.   ",
"  .}%%%%_||_%%%%}.  ",
"  .12222222222221.  ",
" .................. ",
"                    ",
"                    "};
